<?xml version="1.0" encoding="UTF-8" standalone="no"?>
<!DOCTYPE svg PUBLIC "-//W3C//DTD SVG 1.1//EN"
 "http://www.w3.org/Graphics/SVG/1.1/DTD/svg11.dtd">
<!-- Generated by graphviz version 2.38.0 (20140413.2041)
 -->
<!-- Title: G Pages: 1 -->
<svg width="170pt" height="222pt"
 viewBox="0.00 0.00 170.00 222.00" xmlns="http://www.w3.org/2000/svg" xmlns:xlink="http://www.w3.org/1999/xlink">
<g id="graph0" class="graph" transform="scale(1 1) rotate(0) translate(4 218)">
<title>G</title>
<polygon fill="white" stroke="none" points="-4,4 -4,-218 166,-218 166,4 -4,4"/>
<g id="clust1" class="cluster"><title>cluster_Global</title>
<path fill="none" stroke="gray" d="M20,-8C20,-8 142,-8 142,-8 148,-8 154,-14 154,-20 154,-20 154,-194 154,-194 154,-200 148,-206 142,-206 142,-206 20,-206 20,-206 14,-206 8,-200 8,-194 8,-194 8,-20 8,-20 8,-14 14,-8 20,-8"/>
<text text-anchor="middle" x="81" y="-193.2" font-family="Times,serif" font-size="11.00" fill="gray">Global</text>
</g>
<g id="clust2" class="cluster"><title>cluster_\Chadicus</title>
<path fill="none" stroke="gray" d="M28,-16C28,-16 134,-16 134,-16 140,-16 146,-22 146,-28 146,-28 146,-166 146,-166 146,-172 140,-178 134,-178 134,-178 28,-178 28,-178 22,-178 16,-172 16,-166 16,-166 16,-28 16,-28 16,-22 22,-16 28,-16"/>
<text text-anchor="middle" x="81" y="-165.2" font-family="Times,serif" font-size="11.00" fill="gray">Chadicus</text>
</g>
<g id="clust3" class="cluster"><title>cluster_\Chadicus\Util</title>
<path fill="none" stroke="gray" d="M36,-24C36,-24 126,-24 126,-24 132,-24 138,-30 138,-36 138,-36 138,-138 138,-138 138,-144 132,-150 126,-150 126,-150 36,-150 36,-150 30,-150 24,-144 24,-138 24,-138 24,-36 24,-36 24,-30 30,-24 36,-24"/>
<text text-anchor="middle" x="81" y="-137.2" font-family="Times,serif" font-size="11.00" fill="gray">Util</text>
</g>
<!-- \\Chadicus\\Util\\DateTime -->
<g id="node1" class="node"><title>\\Chadicus\\Util\\DateTime</title>
<polygon fill="none" stroke="black" points="116.5,-122 45.5,-122 45.5,-86 116.5,-86 116.5,-122"/>
<text text-anchor="middle" x="81" y="-101.2" font-family="Courier,monospace" font-size="11.00">DateTime</text>
</g>
<!-- \\Chadicus\\Util\\DateTimeZone -->
<g id="node2" class="node"><title>\\Chadicus\\Util\\DateTimeZone</title>
<polygon fill="none" stroke="black" points="130,-68 32,-68 32,-32 130,-32 130,-68"/>
<text text-anchor="middle" x="81" y="-47.2" font-family="Courier,monospace" font-size="11.00">DateTimeZone</text>
</g>
</g>
</svg>
